<svg xmlns="http://www.w3.org/2000/svg" version="1.1" xmlns:xlink="http://www.w3.org/1999/xlink" xmlns:svgjs="http://svgjs.com/svgjs" width="275" height="282"><svg id="SvgjsSvg1004" data-name="Layer 1" xmlns="http://www.w3.org/2000/svg" viewBox="0 0 275 282">
  <g>
    <rect x="131.5" y=".5" width="5" height="281"></rect>
    <path d="m136,1v280h-4V1h4m1-1h-6v282h6V0h0Z"></path>
  </g>
  <g id="SvgjsG1003" data-name="Layer 2">
    <g>
      <rect x=".5" y="141.5" width="274" height="4"></rect>
      <path d="m274,142v3H1v-3h273m1-1H0v5h275v-5h0Z"></path>
    </g>
  </g>
  <g id="SvgjsG1002" data-name="Layer 3">
    <g>
      <ellipse cx="202.5" cy="75.08" rx="54.66" ry="48.99"></ellipse>
      <path d="m202.5,26.93c29.67,0,53.82,21.6,53.82,48.15s-24.14,48.15-53.82,48.15-53.82-21.6-53.82-48.15,24.14-48.15,53.82-48.15m0-1.68c-30.65,0-55.5,22.31-55.5,49.83s24.85,49.83,55.5,49.83,55.5-22.31,55.5-49.83-24.85-49.83-55.5-49.83h0Z"></path>
    </g>
    <g>
      <ellipse cx="62" cy="211.31" rx="53.15" ry="46.84"></ellipse>
      <path d="m62,165.32c28.84,0,52.3,20.63,52.3,45.99s-23.46,45.99-52.3,45.99-52.3-20.63-52.3-45.99,23.46-45.99,52.3-45.99m0-1.7c-29.82,0-54,21.35-54,47.69s24.18,47.69,54,47.69,54-21.35,54-47.69-24.18-47.69-54-47.69h0Z"></path>
    </g>
    <g>
      <circle cx="49.5" cy="236.5" r="2.79"></circle>
      <path d="m49.5,234.42c1.15,0,2.08.93,2.08,2.08s-.93,2.08-2.08,2.08-2.08-.93-2.08-2.08.93-2.08,2.08-2.08m0-1.42c-1.93,0-3.5,1.57-3.5,3.5s1.57,3.5,3.5,3.5,3.5-1.57,3.5-3.5-1.57-3.5-3.5-3.5h0Z"></path>
    </g>
  </g>
  <g id="SvgjsG1001" data-name="Layer 4">
    <g>
      <rect x=".9" y=".9" width="126.21" height="135.21"></rect>
      <path d="m126.21,1.79v133.41H1.79V1.79h124.41m1.79-1.79H0v137h128V0h0Z"></path>
    </g>
  </g>
  <g id="SvgjsG1000" data-name="Layer 5">
    <g>
      <rect x="142.9" y="149.9" width="131.21" height="131.21"></rect>
      <path d="m273.21,150.79v129.41h-129.41v-129.41h129.41m1.79-1.79h-133v133h133v-133h0Z"></path>
    </g>
    <g>
      <path d="m207.31,261.85c-27.32,0-49.55-20.58-49.55-45.88s22.23-45.88,49.55-45.88,49.55,20.58,49.55,45.88-22.23,45.88-49.55,45.88Z" fill="#f2f2f2"></path>
      <path d="m207.31,171.23c26.69,0,48.4,20.07,48.4,44.74s-21.71,44.74-48.4,44.74-48.4-20.07-48.4-44.74,21.71-44.74,48.4-44.74m0-2.3c-28,0-50.69,21.06-50.69,47.03s22.7,47.03,50.69,47.03,50.69-21.06,50.69-47.03-22.7-47.03-50.69-47.03h0Z"></path>
    </g>
    <g>
      <ellipse cx="63" cy="71.11" rx="51.68" ry="45.79" fill="#f2f2f2"></ellipse>
      <path d="m63,26.64c27.77,0,50.36,19.95,50.36,44.47s-22.59,44.47-50.36,44.47S12.64,95.63,12.64,71.11,35.23,26.64,63,26.64m0-2.64c-29.27,0-53,21.09-53,47.11s23.73,47.11,53,47.11,53-21.09,53-47.11-23.73-47.11-53-47.11h0Z"></path>
    </g>
  </g>
</svg><style>@media (prefers-color-scheme: light) { :root { filter: none; } }
</style></svg>